HIERARCHY
ROOT hip
{
  OFFSET 0 0 0
  CHANNELS 6 Xposition Yposition Zposition Zrotation Yrotation Xrotation
  JOINT abdomen
  {
    OFFSET 0 20.6881 -0.73152
    CHANNELS 3 Zrotation Xrotation Yrotation
    JOINT chest
    {
      OFFSET 0 11.7043 -0.48768
      CHANNELS 3 Zrotation Xrotation Yrotation
      JOINT neck
      {
        OFFSET 0 22.1894 -2.19456
        CHANNELS 3 Zrotation Xrotation Yrotation
        JOINT head
        {
          OFFSET -0.24384 7.07133 1.2192
          CHANNELS 3 Zrotation Xrotation Yrotation
          JOINT leftEye
          {
            OFFSET 4.14528 8.04674 8.04672
            CHANNELS 3 Zrotation Xrotation Yrotation
            End Site
            {
              OFFSET 1 0 0
            }
          }
          JOINT rightEye
          {
            OFFSET -3.6576 8.04674 8.04672
            CHANNELS 3 Zrotation Xrotation Yrotation
            End Site
            {
              OFFSET 1 0 0
            }
          }
        }
      }
      JOINT rCollar
      {
        OFFSET -2.68224 19.2634 -4.8768
        CHANNELS 3 Zrotation Xrotation Yrotation
        JOINT rShldr
        {
          OFFSET -8.77824 -1.95073 1.46304
          CHANNELS 3 Zrotation Xrotation Yrotation
          JOINT rForeArm
          {
            OFFSET -28.1742 -1.7115 0.48768
            CHANNELS 3 Zrotation Xrotation Yrotation
            JOINT rHand
            {
              OFFSET -22.5879 0.773209 7.07136
              CHANNELS 3 Zrotation Xrotation Yrotation
              JOINT rThumb1
              {
                OFFSET -1.2192 -0.487915 3.41376
                CHANNELS 3 Zrotation Xrotation Yrotation
                JOINT rThumb2
                {
                  OFFSET -3.37035 -0.52449 3.41376
                  CHANNELS 3 Zrotation Xrotation Yrotation
                  End Site
                  {
                    OFFSET -1.78271 -1.18214 1.43049
                  }
                }
              }
              JOINT rIndex1
              {
                OFFSET -7.75947 0.938293 5.60832
                CHANNELS 3 Zrotation Xrotation Yrotation
                JOINT rIndex2
                {
                  OFFSET -2.54057 -0.884171 1.56538
                  CHANNELS 3 Zrotation Xrotation Yrotation
                  End Site
                  {
                    OFFSET -1.62519 -0.234802 1.16502
                  }
                }
              }
              JOINT rMid1
              {
                OFFSET -8.24714 1.18213 3.41376
                CHANNELS 3 Zrotation Xrotation Yrotation
                JOINT rMid2
                {
                  OFFSET -3.10165 -0.590103 1.0647
                  CHANNELS 3 Zrotation Xrotation Yrotation
                  End Site
                  {
                    OFFSET -2.48547 -0.328903 0.83742
                  }
                }
              }
              JOINT rRing1
              {
                OFFSET -8.82822 0.546677 1.51678
                CHANNELS 3 Zrotation Xrotation Yrotation
                JOINT rRing2
                {
                  OFFSET -2.60934 -0.819778 -0.0198488
                  CHANNELS 3 Zrotation Xrotation Yrotation
                  End Site
                  {
                    OFFSET -2.33842 -0.294052 0.168128
                  }
                }
              }
              JOINT rPinky1
              {
                OFFSET -8.27202 -0.0477905 -0.4584
                CHANNELS 3 Zrotation Xrotation Yrotation
                JOINT rPinky2
                {
                  OFFSET -1.82734 -0.647385 -0.700984
                  CHANNELS 3 Zrotation Xrotation Yrotation
                  End Site
                  {
                    OFFSET -1.69225 -0.51767 -0.607171
                  }
                }
              }
            }
          }
        }
      }
      JOINT lCollar
      {
        OFFSET 2.68224 19.2634 -4.8768
        CHANNELS 3 Zrotation Xrotation Yrotation
        JOINT lShldr
        {
          OFFSET 8.77824 -1.95073 1.46304
          CHANNELS 3 Zrotation Xrotation Yrotation
          JOINT lForeArm
          {
            OFFSET 28.1742 -1.7115 0.48768
            CHANNELS 3 Zrotation Xrotation Yrotation
            JOINT lHand
            {
              OFFSET 22.5879 0.773209 7.07136
              CHANNELS 3 Zrotation Xrotation Yrotation
              JOINT lThumb1
              {
                OFFSET 1.2192 -0.487915 3.41376
                CHANNELS 3 Zrotation Xrotation Yrotation
                JOINT lThumb2
                {
                  OFFSET 3.37035 -0.52449 3.41376
                  CHANNELS 3 Zrotation Xrotation Yrotation
                  End Site
                  {
                    OFFSET 1.78271 -1.18214 1.43049
                  }
                }
              }
              JOINT lIndex1
              {
                OFFSET 7.75947 0.938293 5.60832
                CHANNELS 3 Zrotation Xrotation Yrotation
                JOINT lIndex2
                {
                  OFFSET 2.54057 -0.884171 1.56538
                  CHANNELS 3 Zrotation Xrotation Yrotation
                  End Site
                  {
                    OFFSET 1.62519 -0.234802 1.16502
                  }
                }
              }
              JOINT lMid1
              {
                OFFSET 8.24714 1.18213 3.41376
                CHANNELS 3 Zrotation Xrotation Yrotation
                JOINT lMid2
                {
                  OFFSET 3.10165 -0.590103 1.0647
                  CHANNELS 3 Zrotation Xrotation Yrotation
                  End Site
                  {
                    OFFSET 2.48547 -0.328903 0.83742
                  }
                }
              }
              JOINT lRing1
              {
                OFFSET 8.82822 0.546677 1.51678
                CHANNELS 3 Zrotation Xrotation Yrotation
                JOINT lRing2
                {
                  OFFSET 2.60934 -0.819778 -0.0198488
                  CHANNELS 3 Zrotation Xrotation Yrotation
                  End Site
                  {
                    OFFSET 2.33842 -0.294052 0.168128
                  }
                }
              }
              JOINT lPinky1
              {
                OFFSET 8.27202 -0.0477905 -0.4584
                CHANNELS 3 Zrotation Xrotation Yrotation
                JOINT lPinky2
                {
                  OFFSET 1.82734 -0.647385 -0.700984
                  CHANNELS 3 Zrotation Xrotation Yrotation
                  End Site
                  {
                    OFFSET 1.69225 -0.51767 -0.607171
                  }
                }
              }
            }
          }
        }
      }
    }
  }
  JOINT rButtock
  {
    OFFSET -8.77824 4.35084 1.2192
    CHANNELS 3 Zrotation Xrotation Yrotation
    JOINT rThigh
    {
      OFFSET 0 -1.70687 -2.19456
      CHANNELS 3 Zrotation Xrotation Yrotation
      JOINT rShin
      {
        OFFSET 0 -36.8199 0.73152
        CHANNELS 3 Zrotation Xrotation Yrotation
        JOINT rFoot
        {
          OFFSET 0.73152 -45.1104 -5.12064
          CHANNELS 3 Zrotation Xrotation Yrotation
          End Site
          {
            OFFSET -1.1221 -3.69964 12.103
          }
        }
      }
    }
  }
  JOINT lButtock
  {
    OFFSET 8.77824 4.35084 1.2192
    CHANNELS 3 Zrotation Xrotation Yrotation
    JOINT lThigh
    {
      OFFSET 0 -1.70687 -2.19456
      CHANNELS 3 Zrotation Xrotation Yrotation
      JOINT lShin
      {
        OFFSET 0 -36.8199 0.73152
        CHANNELS 3 Zrotation Xrotation Yrotation
        JOINT lFoot
        {
          OFFSET -0.73152 -45.1104 -5.12064
          CHANNELS 3 Zrotation Xrotation Yrotation
          End Site
          {
            OFFSET 1.1221 -3.69964 12.103
          }
        }
      }
    }
  }
}
MOTION
Frames:	4
Frame Time:	0.03333
0.6012295978143811 55.88504409790039 -9.75136349350214 -19.473301470279694 -7.023537307977676 -2.0737022906541824 0.27109354734420776 4.691670387983322 2.621990405023098 -9.403962939977646 -7.540675923228264 -13.355453610420227 -2.0760780572891235 14.086017608642578 -10.63305839896202 -2.060219496488571 -26.306837797164917 -14.170922935009003 5.651924014091492 3.125077933073044 1.9980093464255333 -8.825573399662971 -5.051071979105473 -13.522457331418991 6.202181875705719 -11.024145260453224 11.701635718345642 56.72994375228882 42.16556757688522 7.694760113954544 -31.370043754577637 -22.414385229349136 62.216836810112 -7.453126609325409 -5.347716584801674 0.24082724936306477 -2.0669954270124435 -5.755410343408585 16.80289015173912 8.701621815562248 7.053166329860687 -9.71651405096054 -3.4615131095051765 7.40212507545948 -1.9843964651226997 8.159405216574669 7.5312962383031845 13.807126879692078 -3.141285516321659 6.69083945453167 -2.3389875143766403 1.7914417013525963 11.702738106250763 -7.161469906568527 -2.6139984279870987 -0.24733319878578186 1.8323041498661041 15.18965408205986 8.577845245599747 -2.675662748515606 1.4879390224814415 4.67304915189743 -5.318585112690926 0.26940375566482544 -7.505562454462051 1.1731703951954842 10.116509199142456 -17.697066217660904 -4.729749038815498 -53.15466642379761 28.67415279150009 -14.501127004623413 34.48933482170105 -23.204927444458008 -60.365270376205444 -12.57386326789856 -17.219789922237396 -4.3615977466106415 9.304001703858376 -8.519473001360893 -4.722635485231876 -3.1657076999545097 -5.830014646053314 6.295732632279396 -2.042066305875778 -6.123096942901611 -3.000882938504219 -1.08518086373806 8.696071654558182 3.9518363401293755 -6.016365811228752 -7.804875522851944 -11.241369992494583 -4.954730719327927 -3.327456973493099 13.354911804199219 9.118575900793076 -6.297407001256943 5.351607128977776 -12.658795416355133 -4.849974028766155 -8.493281900882721 -4.299910627305508 2.253507524728775 1.3367563113570213 -9.840279221534729 2.2589071467518806 6.562394499778748 6.7283400893211365 2.5536105036735535 5.815301388502121 -28.716810643672943 -39.08503711223602 -34.15875256061554 -18.76111328601837 64.96067762374878 19.981509000062943 -7.6564668864011765 -6.657442599534988 -12.735482454299927 -0.5834037624299526 0.054186657071113586 12.826064676046371 44.27797883749008 -33.89133632183075 40.68574458360672 25.039641559123993 58.852638602256775 -18.75056818127632 12.728632092475891 -13.520835936069489 19.00431588292122
0.6140042059123516 55.96543502807617 -9.895724467933178 -19.46244388818741 -7.190815955400467 -1.790192797780037 0.16175329685211182 4.668238610029221 2.616533450782299 -9.461995214223862 -7.561648115515709 -13.324911296367645 -2.1048179268836975 14.1851145029068 -10.653453916311264 -1.9892267882823944 -26.39865517616272 -14.072228372097015 5.6595200300216675 3.1358014047145844 1.9121625646948814 -8.832697346806526 -4.929499514400959 -13.515333384275436 6.273137032985687 -11.000818088650703 11.721580624580383 56.72294855117798 42.154543697834015 7.661074250936508 -31.34674072265625 -22.31691911816597 62.16842293739319 -7.403712272644043 -5.192212834954262 0.22067849524319172 -2.0420294255018234 -5.836649090051651 16.88145473599434 8.707506582140923 7.033713608980179 -9.667681753635406 -3.399951048195362 7.440405562520027 -2.0078926160931587 8.184516057372093 7.539632543921471 13.75438928604126 -3.238413669168949 6.716964170336723 -2.3332958668470383 1.75863828510046 11.662295758724213 -7.225786596536636 -2.5330010801553726 -0.16674891114234924 1.8289674818515778 15.180016905069351 8.63569512963295 -2.679956965148449 1.5332415327429771 4.617806375026703 -5.391482189297676 0.2031981199979782 -7.54304900765419 1.1521955206990242 10.113843083381653 -17.695478349924088 -4.675305560231209 -53.06497871875763 28.745703399181366 -14.525363445281982 34.49754774570465 -23.303847312927246 -60.40911912918091 -12.46671974658966 -17.217837274074554 -4.315635412931442 9.293605461716652 -8.596055433154106 -4.676662422716618 -3.0978478118777275 -5.863620042800903 6.3002172857522964 -2.039952725172043 -6.1077868938446045 -3.0173409730196 -1.0461574047803879 8.711810857057571 3.9733154699206352 -6.03565625846386 -7.782409340143204 -11.301816254854202 -4.999781101942062 -3.243171237409115 13.305661082267761 9.163728207349777 -6.242378801107407 5.292255207896233 -12.694790661334991 -4.870197884738445 -8.520696759223938 -4.321883283555508 2.1976102888584137 1.4396243914961815 -9.757645726203918 2.3067792132496834 6.615582704544067 6.712123453617096 2.576495110988617 5.877040475606918 -28.490217626094818 -39.08987581729889 -34.089975357055664 -18.50344955921173 64.97335910797119 19.65853214263916 -7.691260501742363 -6.680064350366592 -12.633322477340698 -0.5680776201188564 0.13093538582324982 12.909105867147446 44.04762536287308 -33.943140506744385 40.66858112812042 24.66043621301651 59.016188979148865 -18.51629063487053 12.81278908252716 -13.447718918323517 19.034056216478348
0.6281422404572368 55.44213104248047 -10.053794004023075 -19.362013936042786 -5.659494549036026 -3.377963975071907 0.8241194486618042 4.757481068372726 2.310175560414791 -9.797818511724472 -7.594175264239311 -12.891409993171692 -1.862732470035553 14.30544376373291 -10.142729133367538 -2.122296541929245 -26.29925787448883 -13.871148526668549 6.50178462266922 3.112340122461319 2.2657903656363487 -9.15319986641407 -5.306072272360325 -13.274669498205185 5.990987420082092 -11.017113849520683 11.757801175117493 56.596412658691406 42.688657343387604 8.030733615159988 -31.456775665283203 -22.823506593704224 63.149070739746094 -7.332950234413147 -5.522226467728615 0.2684593666344881 -1.7982219904661179 -5.961487144231796 16.78994044661522 8.769106194376945 7.223231792449951 -9.562383592128754 -3.831336088478565 7.055497840046883 -1.6170411184430122 8.039843067526817 7.674182876944542 13.747962713241577 -2.262679673731327 6.314241215586662 -2.3130881041288376 1.9513415917754173 11.482552886009216 -7.221570163965225 -2.0248404890298843 -0.07838085293769836 1.300717145204544 15.11736586689949 8.089940696954727 -3.0691884085536003 1.5952247008681297 4.556002914905548 -4.869728162884712 0.5385801941156387 -7.643878608942032 1.6177411749958992 10.419121384620667 -17.937950044870377 -4.736894443631172 -53.38326036930084 28.37260812520981 -14.815471172332764 34.54673409461975 -23.030900359153748 -59.99565124511719 -12.693361043930054 -16.86418265104294 -4.813592880964279 9.270120039582253 -8.796030208468437 -4.707577563822269 -3.0359316989779472 -5.844774842262268 5.965016260743141 -2.059570401906967 -5.908691883087158 -3.362857773900032 -1.129002794623375 8.305874615907669 3.7755347415804863 -5.740114375948906 -7.514231353998184 -11.285304576158524 -4.983956068754196 -3.488614819943905 13.326212167739868 8.7387053668499 -6.842447966337204 5.422358438372612 -12.73750215768814 -5.255446247756481 -8.657293617725372 -4.787560366094112 1.6859681904315948 1.3605877384543419 -10.043579936027527 1.7062433436512947 6.901377439498901 6.286505162715912 2.4197253584861755 5.949309915304184 -29.826054275035858 -39.199720323085785 -34.658008217811584 -19.7806316614151 64.4446313381195 22.148699015378952 -7.469586655497551 -6.027450710535049 -12.508728504180908 -0.9519982896745205 0.02116866409778595 12.828339189291 46.56521916389465 -33.92169892787933 40.891000628471375 26.750351786613464 58.64956855773926 -20.028589814901352 11.897040009498596 -13.337619602680206 18.213396817445755
0.6399441603571177 55.875946044921875 -10.25628500431776 -18.799804151058197 -6.720184832811356 -1.7105955630540848 0.8049094676971436 4.674954861402512 2.4818677827715874 -9.555067867040634 -8.464069291949272 -13.773475885391235 -1.6447976231575012 13.940867185592651 -9.934997409582138 -2.16836616396904 -26.64711892604828 -13.684783279895782 6.330142021179199 2.939600497484207 1.6707047447562218 -8.934782221913338 -5.353511162102222 -13.406231850385666 6.274738311767578 -10.99629320204258 12.214227318763733 56.49850130081177 43.302483558654785 9.119721204042435 -31.09807312488556 -21.522851139307022 62.418437004089355 -7.139021158218384 -5.24577721953392 0.5817896593362093 -2.7548854798078537 -5.231553465127945 16.813594847917557 8.139941766858101 6.454023867845535 -10.461513698101044 -3.624677248299122 7.036663368344307 -1.9265036657452583 8.70221458375454 7.384386286139488 14.235250353813171 -2.6175251975655556 6.232321187853813 -3.1806539744138718 2.1210556849837303 12.249688804149628 -7.417148798704147 -2.377411499619484 -0.000232011079788208 1.7075921595096588 15.304629653692245 8.860206753015518 -3.644535653293133 1.5727397426962852 4.13198322057724 -5.085131004452705 1.0251443088054657 -8.319494873285294 1.010499782860279 10.39354920387268 -18.703731447458267 -5.468005612492561 -52.591166496276855 28.41528743505478 -14.74265456199646 34.42024111747742 -22.684691548347473 -59.68167185783386 -14.57135260105133 -17.879484593868256 -4.7970543801784515 9.070027247071266 -7.995605394244194 -3.889380432665348 -2.7371014282107353 -6.19504451751709 5.578542128205299 -1.7632077634334564 -5.456192493438721 -4.26728792488575 -0.7869406789541245 7.665878087282181 3.371095173060894 -6.236768290400505 -7.777742296457291 -11.323960572481155 -5.544854253530502 -3.8545754179358482 14.132245481014252 9.371824711561203 -6.5224389731884 6.6540395468473434 -12.67059713602066 -4.964244179427624 -8.870521187782288 -4.90540724247694 2.139095216989517 1.12754937261343 -10.450401306152344 1.8987401202321053 7.582213282585144 6.4173272252082825 2.2721394896507263 5.704231113195419 -28.96456092596054 -39.87708806991577 -35.09008526802063 -18.18765699863434 64.77890968322754 21.351066380739212 -8.004419133067131 -4.186146408319473 -11.898279190063477 -0.964894350618124 -0.5005209892988205 13.375241607427597 45.65724849700928 -34.77770984172821 40.97883492708206 25.329612493515015 58.25818598270416 -19.011329859495163 13.195180892944336 -12.937476933002472 19.99934032559395
